HIERARCHY
ROOT Root
{
  OFFSET 0.0 0.0 0.0
  CHANNELS 6 Xposition Yposition Zposition Zrotation Yrotation Xrotation
  JOINT Hips
  {
    OFFSET 0.0 100.0 0.0
    CHANNELS 6 Xposition Yposition Zposition Zrotation Yrotation Xrotation
    JOINT Spine1
    {
      OFFSET -0.013727 5.003763 -0.053727
      CHANNELS 3 Zrotation Yrotation Xrotation
      JOINT Spine2
      {
        OFFSET -0.0 7.125301 -0.029825
        CHANNELS 3 Zrotation Yrotation Xrotation
        JOINT Chest
        {
          OFFSET -1e-06 7.550063 -0.815971
          CHANNELS 3 Zrotation Yrotation Xrotation
          JOINT Neck1
          {
            OFFSET -0.181677 26.311295 -0.553348
            CHANNELS 3 Zrotation Yrotation Xrotation
            JOINT Neck2
            {
              OFFSET -3e-06 7.709397 2.302585
              CHANNELS 3 Zrotation Yrotation Xrotation
              JOINT Head
              {
                OFFSET -5e-06 6.128916 1.953709
                CHANNELS 3 Zrotation Yrotation Xrotation
                JOINT HeadEnd
                {
                  OFFSET 0.003598 16.065403 -1.835379
                  CHANNELS 3 Zrotation Yrotation Xrotation
                }
                JOINT Jaw
                {
                  OFFSET 0.002637 0.475592 3.094941
                  CHANNELS 3 Zrotation Yrotation Xrotation
                }
                JOINT LeftEye
                {
                  OFFSET 3.206381 5.380205 7.586883
                  CHANNELS 3 Zrotation Yrotation Xrotation
                }
                JOINT RightEye
                {
                  OFFSET -3.22244 5.361869 7.558234
                  CHANNELS 3 Zrotation Yrotation Xrotation
                }
              }
            }
          }
          JOINT LeftShoulder
          {
            OFFSET 1.621652 23.237164 5.113413
            CHANNELS 3 Zrotation Yrotation Xrotation
            JOINT LeftArm
            {
              OFFSET 14.919846 2e-06 -5.502326
              CHANNELS 3 Zrotation Yrotation Xrotation
              JOINT LeftForeArm
              {
                OFFSET 28.739307 0.0 -0.002588
                CHANNELS 3 Zrotation Yrotation Xrotation
                JOINT LeftHand
                {
                  OFFSET 27.093981 -1e-06 0.002609
                  CHANNELS 3 Zrotation Yrotation Xrotation
                  JOINT LeftHandThumb1
                  {
                    OFFSET 2.276482 -1.392045 3.191413
                    CHANNELS 3 Zrotation Yrotation Xrotation
                    JOINT LeftHandThumb2
                    {
                      OFFSET 4.012836 -1.828127 1.641654
                      CHANNELS 3 Zrotation Yrotation Xrotation
                      JOINT LeftHandThumb3
                      {
                        OFFSET 2.798515 0.0 -3e-06
                        CHANNELS 3 Zrotation Yrotation Xrotation
                        JOINT LeftHandThumbEnd
                        {
                          OFFSET 3.180793 -4e-06 4e-06
                          CHANNELS 3 Zrotation Yrotation Xrotation
                        }
                      }
                    }
                  }
                  JOINT LeftHandIndex1
                  {
                    OFFSET 3.247555 -0.531998 2.296169
                    CHANNELS 3 Zrotation Yrotation Xrotation
                    JOINT LeftHandIndex2
                    {
                      OFFSET 6.364578 0.01206 0.1786
                      CHANNELS 3 Zrotation Yrotation Xrotation
                      JOINT LeftHandIndex3
                      {
                        OFFSET 3.662364 0.0 0.0
                        CHANNELS 3 Zrotation Yrotation Xrotation
                        JOINT LeftHandIndex4
                        {
                          OFFSET 2.329242 4e-06 4e-06
                          CHANNELS 3 Zrotation Yrotation Xrotation
                          JOINT LeftHandIndexEnd
                          {
                            OFFSET 2.759615 -0.180537 -0.113024
                            CHANNELS 3 Zrotation Yrotation Xrotation
                          }
                        }
                      }
                    }
                  }
                  JOINT LeftHandMiddle1
                  {
                    OFFSET 3.163495 0.240981 1.000332
                    CHANNELS 3 Zrotation Yrotation Xrotation
                    JOINT LeftHandMiddle2
                    {
                      OFFSET 6.19078 -0.259278 -1.002548
                      CHANNELS 3 Zrotation Yrotation Xrotation
                      JOINT LeftHandMiddle3
                      {
                        OFFSET 4.35652 -4e-06 -1e-06
                        CHANNELS 3 Zrotation Yrotation Xrotation
                        JOINT LeftHandMiddle4
                        {
                          OFFSET 2.996877 -8e-06 0.0
                          CHANNELS 3 Zrotation Yrotation Xrotation
                          JOINT LeftHandMiddleEnd
                          {
                            OFFSET 2.304287 -0.294569 -0.031741
                            CHANNELS 3 Zrotation Yrotation Xrotation
                          }
                        }
                      }
                    }
                  }
                  JOINT LeftHandRing1
                  {
                    OFFSET 2.882643 -0.053652 -0.322543
                    CHANNELS 3 Zrotation Yrotation Xrotation
                    JOINT LeftHandRing2
                    {
                      OFFSET 5.854541 -0.486202 -1.373841
                      CHANNELS 3 Zrotation Yrotation Xrotation
                      JOINT LeftHandRing3
                      {
                        OFFSET 4.350578 0.0 3e-06
                        CHANNELS 3 Zrotation Yrotation Xrotation
                        JOINT LeftHandRing4
                        {
                          OFFSET 2.651321 7e-06 2e-06
                          CHANNELS 3 Zrotation Yrotation Xrotation
                          JOINT LeftHandRingEnd
                          {
                            OFFSET 1.936105 0.077687 -7.1e-05
                            CHANNELS 3 Zrotation Yrotation Xrotation
                          }
                        }
                      }
                    }
                  }
                  JOINT LeftHandPinky1
                  {
                    OFFSET 2.8655 -0.310005 -1.600378
                    CHANNELS 3 Zrotation Yrotation Xrotation
                    JOINT LeftHandPinky2
                    {
                      OFFSET 5.087849 -1.331141 -1.77123
                      CHANNELS 3 Zrotation Yrotation Xrotation
                      JOINT LeftHandPinky3
                      {
                        OFFSET 3.070974 4e-06 0.0
                        CHANNELS 3 Zrotation Yrotation Xrotation
                        JOINT LeftHandPinky4
                        {
                          OFFSET 1.549672 0.0 1e-06
                          CHANNELS 3 Zrotation Yrotation Xrotation
                          JOINT LeftHandPinkyEnd
                          {
                            OFFSET 1.944893 -0.157802 0.057219
                            CHANNELS 3 Zrotation Yrotation Xrotation
                          }
                        }
                      }
                    }
                  }
                }
              }
            }
          }
          JOINT RightShoulder
          {
            OFFSET -1.380118 23.180309 5.214158
            CHANNELS 3 Zrotation Yrotation Xrotation
            JOINT RightArm
            {
              OFFSET -15.037196 1.2e-05 -5.545604
              CHANNELS 3 Zrotation Yrotation Xrotation
              JOINT RightForeArm
              {
                OFFSET -28.736639 2e-06 -0.002597
                CHANNELS 3 Zrotation Yrotation Xrotation
                JOINT RightHand
                {
                  OFFSET -27.133619 -0.0 0.002613
                  CHANNELS 3 Zrotation Yrotation Xrotation
                  JOINT RightHandThumb1
                  {
                    OFFSET -2.274032 -1.383988 3.163127
                    CHANNELS 3 Zrotation Yrotation Xrotation
                    JOINT RightHandThumb2
                    {
                      OFFSET -4.011429 -1.827466 1.640914
                      CHANNELS 3 Zrotation Yrotation Xrotation
                      JOINT RightHandThumb3
                      {
                        OFFSET -2.794935 -4e-06 -3e-06
                        CHANNELS 3 Zrotation Yrotation Xrotation
                        JOINT RightHandThumbEnd
                        {
                          OFFSET -3.183852 4e-06 1e-06
                          CHANNELS 3 Zrotation Yrotation Xrotation
                        }
                      }
                    }
                  }
                  JOINT RightHandIndex1
                  {
                    OFFSET -3.253266 -0.520057 2.282866
                    CHANNELS 3 Zrotation Yrotation Xrotation
                    JOINT RightHandIndex2
                    {
                      OFFSET -6.341917 0.012471 0.178266
                      CHANNELS 3 Zrotation Yrotation Xrotation
                      JOINT RightHandIndex3
                      {
                        OFFSET -3.654871 -8e-06 -0.0
                        CHANNELS 3 Zrotation Yrotation Xrotation
                        JOINT RightHandIndex4
                        {
                          OFFSET -2.327586 0.0 1e-06
                          CHANNELS 3 Zrotation Yrotation Xrotation
                          JOINT RightHandIndexEnd
                          {
                            OFFSET -2.76179 -0.180656 -0.113078
                            CHANNELS 3 Zrotation Yrotation Xrotation
                          }
                        }
                      }
                    }
                  }
                  JOINT RightHandMiddle1
                  {
                    OFFSET -3.168106 0.246593 1.00103
                    CHANNELS 3 Zrotation Yrotation Xrotation
                    JOINT RightHandMiddle2
                    {
                      OFFSET -6.180828 -0.258836 -1.000895
                      CHANNELS 3 Zrotation Yrotation Xrotation
                      JOINT RightHandMiddle3
                      {
                        OFFSET -4.348901 0.0 -0.0
                        CHANNELS 3 Zrotation Yrotation Xrotation
                        JOINT RightHandMiddle4
                        {
                          OFFSET -3.00024 -4e-06 -2e-06
                          CHANNELS 3 Zrotation Yrotation Xrotation
                          JOINT RightHandMiddleEnd
                          {
                            OFFSET -2.30252 -0.29437 -0.031706
                            CHANNELS 3 Zrotation Yrotation Xrotation
                          }
                        }
                      }
                    }
                  }
                  JOINT RightHandRing1
                  {
                    OFFSET -2.88569 -0.067952 -0.308858
                    CHANNELS 3 Zrotation Yrotation Xrotation
                    JOINT RightHandRing2
                    {
                      OFFSET -5.854198 -0.48613 -1.373731
                      CHANNELS 3 Zrotation Yrotation Xrotation
                      JOINT RightHandRing3
                      {
                        OFFSET -4.33881 -4e-06 -0.0
                        CHANNELS 3 Zrotation Yrotation Xrotation
                        JOINT RightHandRing4
                        {
                          OFFSET -2.654903 -4e-06 4e-06
                          CHANNELS 3 Zrotation Yrotation Xrotation
                          JOINT RightHandRingEnd
                          {
                            OFFSET -1.933568 0.077527 -5.2e-05
                            CHANNELS 3 Zrotation Yrotation Xrotation
                          }
                        }
                      }
                    }
                  }
                  JOINT RightHandPinky1
                  {
                    OFFSET -2.866425 -0.342796 -1.584145
                    CHANNELS 3 Zrotation Yrotation Xrotation
                    JOINT RightHandPinky2
                    {
                      OFFSET -5.091371 -1.332055 -1.772385
                      CHANNELS 3 Zrotation Yrotation Xrotation
                      JOINT RightHandPinky3
                      {
                        OFFSET -3.062664 -4e-06 1e-06
                        CHANNELS 3 Zrotation Yrotation Xrotation
                        JOINT RightHandPinky4
                        {
                          OFFSET -1.546529 4e-06 -2e-06
                          CHANNELS 3 Zrotation Yrotation Xrotation
                          JOINT RightHandPinkyEnd
                          {
                            OFFSET -1.945119 -0.157718 0.057211
                            CHANNELS 3 Zrotation Yrotation Xrotation
                          }
                        }
                      }
                    }
                  }
                }
              }
            }
          }
        }
      }
    }
    JOINT LeftLeg
    {
      OFFSET 10.043214 -8.434526 2.595655
      CHANNELS 3 Zrotation Yrotation Xrotation
      JOINT LeftShin
      {
        OFFSET -1e-06 -43.221752 -0.802913
        CHANNELS 3 Zrotation Yrotation Xrotation
        JOINT LeftFoot
        {
          OFFSET 1e-06 -42.155094 -3.481523
          CHANNELS 3 Zrotation Yrotation Xrotation
          JOINT LeftToeBase
          {
            OFFSET 0.0 -5.059472 13.231529
            CHANNELS 3 Zrotation Yrotation Xrotation
            JOINT LeftToeEnd
            {
              OFFSET -0.009607 -1.647619 6.513017
              CHANNELS 3 Zrotation Yrotation Xrotation
            }
          }
        }
      }
    }
    JOINT RightLeg
    {
      OFFSET -10.047278 -8.29526 2.620317
      CHANNELS 3 Zrotation Yrotation Xrotation
      JOINT RightShin
      {
        OFFSET 1e-06 -43.362206 -0.805556
        CHANNELS 3 Zrotation Yrotation Xrotation
        JOINT RightFoot
        {
          OFFSET 2e-06 -42.117393 -3.478398
          CHANNELS 3 Zrotation Yrotation Xrotation
          JOINT RightToeBase
          {
            OFFSET -0.0 -5.079609 13.284196
            CHANNELS 3 Zrotation Yrotation Xrotation
            JOINT RightToeEnd
            {
              OFFSET 0.009532 -1.634378 6.460591
              CHANNELS 3 Zrotation Yrotation Xrotation
            }
          }
        }
      }
    }
  }
}
MOTION
Frames: 4
Frame Time: 0.03333333333333333
0.0 0.0 0.0 0.0 -0.0 0.0 -0.187986 100.056671 -3.210609 -0.482381 -0.186925 0.061918 -0.237884 0.119898 -1.100454 -0.419825 -0.063043 -5.335611 0.66798 -1.405282 9.45999 -1.27534 3.882204 -2.63039 1.5541 6.374547 -3.45168 3.592888 6.213393 -5.852756 7.7e-05 -2.4e-05 6e-06 -0.019379 -0.003869 -0.045353 0.675862 -3.766293 -10.646537 -0.717975 3.762283 -10.637203 -8.939092 -2.660181 13.639513 -59.090126 -3.347019 24.60478 0.731559 -44.926182 -0.57164 9.100685 0.577481 -4.481402 -5.882101 9.861278 0.702591 -10.936863 -0.360574 7.1562 0.0 8.774817 -2e-06 -15.54842 18.330145 6.420005 -1.844031 2.498503 -2.507275 -10.163589 4.67894 4.621104 -20.976006 -3e-06 1e-06 -21.226263 2.451697 -3.593995 3e-06 -6e-06 1e-06 -1.362679 2.240796 -0.746323 -21.334896 0.584906 3.008322 -13.8212 -3e-06 1e-06 -23.887152 -0.249079 -0.839482 -60.108494 2.637844 -1.067947 -0.294024 1.679684 0.833256 -14.218196 0.093212 1.300581 -34.212013 -0.287563 0.967174 -20.033194 0.964536 1.212845 -0.0 -1e-06 0.0 -3.440386 0.788232 0.501657 -15.928172 -3.167305 2.999707 -6.33882 -1e-06 2e-06 -18.123426 3.64818 -4.905665 -3e-06 1e-06 -2e-06 10.307709 7.293621 14.926764 64.412216 5.956715 18.706404 0.147765 36.322712 0.083554 -5.239034 -1.804283 -9.752896 2.24354 -5.255033 -3.180157 14.282881 -0.826594 6.9525 -2e-06 -12.690595 -1e-06 16.023315 -17.835272 2.848476 1.665666 -1.95592 -2.878297 4.727797 -4.170584 4.993919 11.020519 3e-06 -2e-06 12.109045 -3.735713 -2.866782 -0.0 0.0 -0.0 1.291984 -1.928547 -1.498088 14.800118 0.567468 3.865607 14.242561 -1.341735 -6.660652 19.631952 0.143924 -0.648242 50.068771 -0.650539 -6.411002 0.353029 -1.51115 -0.031941 20.22278 3.684306 2.316631 18.787262 4e-06 -0.0 10.751623 -0.479868 1.397908 1e-06 1e-06 -1e-06 3.273804 0.305946 -0.58011 21.486801 11.830365 2.266135 8.162922 0.0 -1e-06 18.399071 -3.798984 -4.940571 2e-06 -0.0 -2e-06 4.647821 8.23682 -2.111323 0.000465 -0.262758 7.082851 -3.746457 1.728936 -3.692754 1.640067 -1.914015 -0.162228 0.0 -0.0 2e-06 -3.720651 -1.505902 -2.907799 -0.015488 0.225616 7.562486 4.222006 1.365237 -6.52291 -1.412548 1.044481 -0.587695 -0.0 -0.0 -1e-06 
0.0 0.0 0.0 0.0 -0.0 0.0 -0.316203 100.060181 -3.10587 -0.492076 0.059199 0.117918 -0.22302 0.117358 -1.076371 -0.411242 0.025653 -5.331698 0.66961 -1.371262 9.380148 -1.176557 3.864689 -2.722278 1.531191 6.441938 -3.41787 3.609843 6.177187 -6.046079 7.7e-05 -2.4e-05 7e-06 -0.006685 0.020895 -0.038138 0.685763 -3.7387 -10.632353 -0.702932 3.784344 -10.627853 -8.777529 -2.603022 13.606259 -59.042095 -3.243091 24.216768 0.883472 -45.743603 -0.716542 9.470634 0.307132 -4.480668 -5.882102 9.86128 0.70259 -10.936868 -0.360577 7.156207 2e-06 8.774822 -2e-06 -15.599884 18.379999 6.440793 -1.844031 2.498505 -2.507277 -10.163595 4.678941 4.621109 -20.976017 -6e-06 4e-06 -21.226278 2.451692 -3.593996 2e-06 -6e-06 -0.0 -1.36268 2.240796 -0.746325 -21.334906 0.584907 3.008326 -13.821208 -5e-06 1e-06 -23.887165 -0.24908 -0.839478 -60.230083 2.636914 -1.060937 -0.294024 1.679686 0.833257 -14.218203 0.093215 1.300582 -34.212036 -0.287566 0.967173 -20.033209 0.964536 1.212846 -0.0 -0.0 0.0 -3.440387 0.788233 0.501656 -15.928181 -3.16731 2.999704 -6.338825 -1e-06 3e-06 -18.123442 3.648181 -4.905667 -4e-06 0.0 -2e-06 10.110554 7.311553 15.002209 64.511925 5.854815 18.62817 0.053123 36.487247 0.03879 -5.134598 -1.7053 -9.738576 2.243539 -5.255034 -3.180156 14.28288 -0.826593 6.952499 -2e-06 -12.6906 -1e-06 16.052525 -17.83131 2.801296 1.665664 -1.95592 -2.878296 4.727795 -4.170585 4.993921 11.020517 3e-06 -2e-06 12.109043 -3.735714 -2.866784 -0.0 -0.0 0.0 1.291985 -1.928548 -1.498089 14.800118 0.567468 3.865605 14.24256 -1.341736 -6.660653 19.631952 0.143927 -0.648244 50.008881 -0.634243 -6.417486 0.353028 -1.511149 -0.031941 20.222775 3.684309 2.31663 18.787262 6e-06 0.0 10.751619 -0.479868 1.397904 1e-06 0.0 0.0 3.273803 0.305947 -0.58011 21.486795 11.830369 2.266134 8.162921 2e-06 2e-06 18.399067 -3.798982 -4.940575 2e-06 0.0 -3e-06 4.719831 8.002832 -2.361384 -0.010155 -0.257421 7.531959 -3.721072 1.637563 -4.015286 1.639322 -1.918469 -0.22403 0.0 -1e-06 2e-06 -3.643765 -1.862333 -3.032437 -0.024335 0.199001 7.980036 4.203798 1.415756 -6.91627 -1.408473 1.038728 -0.768627 -0.0 -0.0 -1e-06 
0.0 0.0 0.0 0.0 -0.0 0.0 -0.430659 100.041008 -2.981411 -0.525286 0.377516 0.20752 -0.196793 0.123869 -1.060029 -0.413898 0.086296 -5.345565 0.714553 -1.340004 9.318331 -1.071323 3.864541 -2.82395 1.519078 6.504319 -3.401883 3.650597 6.222019 -6.34394 7.7e-05 -2.2e-05 6e-06 -0.001603 0.022068 -0.02902 0.681518 -3.739897 -10.631706 -0.689026 3.787951 -10.628356 -8.611619 -2.507761 13.635632 -58.971996 -3.12381 23.655678 1.032986 -47.012882 -0.845408 10.010419 0.06734 -4.609111 -5.882101 9.861279 0.70259 -10.936863 -0.360577 7.156198 2e-06 8.774821 0.0 -15.665791 18.458521 6.447324 -1.844032 2.498503 -2.507277 -10.163591 4.67894 4.621105 -20.976007 -8e-06 -1e-06 -21.226271 2.451692 -3.593997 2e-06 -5e-06 -0.0 -1.36268 2.240796 -0.746323 -21.334896 0.584905 3.008317 -13.821201 -4e-06 -2e-06 -23.887152 -0.249082 -0.839481 -60.328979 2.628823 -1.048105 -0.294023 1.679686 0.833256 -14.218197 0.093213 1.300579 -34.212013 -0.287571 0.967167 -20.033194 0.96453 1.21284 -1e-06 -0.0 1e-06 -3.440385 0.788233 0.501655 -15.928174 -3.16731 2.999702 -6.338821 -2e-06 1e-06 -18.12343 3.648178 -4.905668 -4e-06 0.0 -3e-06 9.921074 7.342165 15.067556 64.567848 5.782748 18.579556 -0.015355 36.626587 -0.010246 -5.012321 -1.601522 -9.625075 2.24354 -5.255033 -3.180155 14.282883 -0.826591 6.952498 -3e-06 -12.690599 0.0 16.064747 -17.856253 2.78483 1.665666 -1.95592 -2.878298 4.727797 -4.170585 4.993921 11.02052 5e-06 -3e-06 12.109048 -3.735712 -2.866783 -1e-06 -0.0 0.0 1.291985 -1.928548 -1.498088 14.800122 0.567469 3.865605 14.242567 -1.341734 -6.660654 19.631958 0.143928 -0.648244 49.964081 -0.641258 -6.411115 0.353028 -1.511149 -0.03194 20.222784 3.684309 2.316627 18.787266 6e-06 -1e-06 10.751625 -0.479867 1.397906 1e-06 0.0 -1e-06 3.273806 0.305946 -0.58011 21.486807 11.830372 2.266131 8.162924 3e-06 -2e-06 18.399075 -3.798981 -4.940573 2e-06 1e-06 -2e-06 4.821104 7.808228 -2.66328 -0.020406 -0.258095 8.037027 -3.767269 1.473138 -4.400758 1.63737 -1.923138 -0.251783 0.0 -0.0 2e-06 -3.527416 -2.234505 -3.210844 -0.033573 0.16986 8.473081 4.114511 1.47495 -7.317311 -1.40101 1.027182 -0.878673 0.0 -0.0 -1e-06 
0.0 0.0 0.0 0.0 -0.0 0.0 -0.553218 99.982849 -2.826281 -0.577273 0.674308 0.337217 -0.15818 0.138511 -1.025442 -0.418248 0.145504 -5.344992 0.783704 -1.320154 9.216366 -0.913076 3.889751 -2.989752 1.492549 6.525461 -3.380974 3.653991 6.317798 -6.731744 7.7e-05 -2.1e-05 6e-06 -0.000925 0.015091 -0.018494 0.671372 -3.747263 -10.620311 -0.677858 3.780991 -10.617103 -8.402978 -2.391247 13.645808 -58.920757 -2.829659 22.935757 1.121995 -48.856163 -0.916248 10.735293 -0.242666 -4.853776 -5.8821 9.861279 0.702593 -10.936859 -0.360572 7.156199 -4e-06 8.774817 -2e-06 -15.739546 18.507257 6.416561 -1.84403 2.498502 -2.507273 -10.16359 4.678945 4.621105 -20.976 2e-06 -0.0 -21.226265 2.451699 -3.593999 1e-06 -6e-06 2e-06 -1.36268 2.240796 -0.746322 -21.334892 0.584914 3.008323 -13.821199 -0.0 1e-06 -23.887144 -0.249075 -0.839486 -60.408829 2.626202 -1.065473 -0.294023 1.679684 0.833256 -14.218195 0.09322 1.30058 -34.212013 -0.287555 0.967168 -20.033194 0.964539 1.212841 -1e-06 -1e-06 2e-06 -3.440384 0.788233 0.501654 -15.928165 -3.167305 2.999705 -6.338819 1e-06 -0.0 -18.12343 3.648185 -4.905669 -4e-06 0.0 -3e-06 9.702684 7.379968 15.079338 64.555199 5.750227 18.525694 0.034639 36.800518 -0.011091 -4.881303 -1.514914 -9.178738 2.243541 -5.255036 -3.180155 14.28288 -0.826595 6.952496 2e-06 -12.690599 -1e-06 16.079863 -17.900209 2.768878 1.665665 -1.955922 -2.878298 4.727797 -4.170586 4.993921 11.020517 -0.0 -1e-06 12.109044 -3.735717 -2.866783 -0.0 -0.0 0.0 1.291984 -1.928549 -1.498088 14.800118 0.567464 3.865606 14.242559 -1.341742 -6.660653 19.631952 0.143919 -0.648244 49.936878 -0.656652 -6.384593 0.353028 -1.511149 -0.031941 20.222775 3.684304 2.31663 18.787256 1e-06 -3e-06 10.75162 -0.47987 1.397904 1e-06 -1e-06 -0.0 3.273805 0.305946 -0.580111 21.486794 11.830364 2.266132 8.162924 1e-06 1e-06 18.399073 -3.798987 -4.940575 3e-06 1e-06 -1e-06 4.960717 7.690596 -3.090484 -0.028796 -0.264594 8.723011 -3.869003 1.297276 -4.865554 1.637631 -1.926879 -0.257341 0.0 -0.0 2e-06 -3.382629 -2.606889 -3.480127 -0.037571 0.138523 9.077949 3.971793 1.548025 -7.798623 -1.396239 1.021075 -0.945966 0.0 0.0 -1e-06 
